# xmcd
#
# Track frame offsets: 
#        150
#        20995
#        49534
#        71026
#        88965
#        109053
#        128625
#        152559
#        171859
#        192925
#        211237
#        225637
#        248470
#        267861
#
# Disc length: 3793 seconds
#
# Revision: 0
# Processed by: cddbd v1.5.2PL0 Copyright (c) Steve Scherf et al.
# Submitted via: ExactAudioCopy v0.99pb5
#
DISCID=bc0ecf0e
DTITLE=LONGFIELD GOSPEL - Christmas
DYEAR=2010
DGENRE=Gospel
TTITLE0=Go tell it on the mountain
TTITLE1=Happy X-mas
TTITLE2=Annunciation
TTITLE3=Jesus Christ
TTITLE4=Born on this day
TTITLE5=Mary`s Boy Child
TTITLE6=Eternally
TTITLE7=Christmas
TTITLE8=Dear Santa
TTITLE9=The night that christ was born
TTITLE10=Santa Claus is coming to town
TTITLE11=I know that it`s christmas
TTITLE12=Psalm 151
TTITLE13=Amen
EXTD=
EXTT0=
EXTT1=
EXTT2=
EXTT3=
EXTT4=
EXTT5=
EXTT6=
EXTT7=
EXTT8=
EXTT9=
EXTT10=
EXTT11=
EXTT12=
EXTT13=
PLAYORDER=
